<svg width="95" height="95" viewBox="0 0 95 95" fill="none" xmlns="http://www.w3.org/2000/svg">
<circle cx="47.5" cy="47.5" r="47.5" fill="black"/>
<circle cx="47.5" cy="47.5" r="47.5" fill="black"/>
<path d="M36.75 44.25C38.1307 44.25 39.25 43.1307 39.25 41.75C39.25 40.3693 38.1307 39.25 36.75 39.25C35.3693 39.25 34.25 40.3693 34.25 41.75C34.25 43.1307 35.3693 44.25 36.75 44.25Z" stroke="white" stroke-width="1.5" stroke-miterlimit="10" stroke-linecap="round" stroke-linejoin="round"/>
<path d="M59.25 44.25C60.6307 44.25 61.75 43.1307 61.75 41.75C61.75 40.3693 60.6307 39.25 59.25 39.25C57.8693 39.25 56.75 40.3693 56.75 41.75C56.75 43.1307 57.8693 44.25 59.25 44.25Z" stroke="white" stroke-width="1.5" stroke-miterlimit="10" stroke-linecap="round" stroke-linejoin="round"/>
<path d="M56.75 41.75H51.75" stroke="white" stroke-width="1.5" stroke-miterlimit="10" stroke-linecap="round" stroke-linejoin="round"/>
<path d="M44.25 41.75H39.25" stroke="white" stroke-width="1.5" stroke-miterlimit="10" stroke-linecap="round" stroke-linejoin="round"/>
<path d="M42.375 53.625V56.125C42.375 56.8875 41.9125 57.55 41.2625 57.825C41.025 57.9375 40.775 58 40.5 58H38C36.9625 58 36.125 57.1625 36.125 56.125V53.625C36.125 52.5875 36.9625 51.75 38 51.75H40.5C41.5375 51.75 42.375 52.5875 42.375 53.625Z" stroke="white" stroke-width="1.5" stroke-miterlimit="10" stroke-linecap="round" stroke-linejoin="round"/>
<path d="M59.875 53.625V56.125C59.875 57.1625 59.0375 58 58 58H55.5C55.225 58 54.975 57.9375 54.7375 57.825C54.0875 57.55 53.625 56.8875 53.625 56.125V53.625C53.625 52.5875 54.4625 51.75 55.5 51.75H58C59.0375 51.75 59.875 52.5875 59.875 53.625Z" stroke="white" stroke-width="1.5" stroke-miterlimit="10" stroke-linecap="round" stroke-linejoin="round"/>
<path d="M51.75 39.875V43.625C51.75 44.65 50.9 45.5 49.875 45.5H46.125C45.1 45.5 44.25 44.65 44.25 43.625V39.875C44.25 38.85 45.1 38 46.125 38H49.875C50.9 38 51.75 38.85 51.75 39.875Z" stroke="white" stroke-width="1.5" stroke-miterlimit="10" stroke-linecap="round" stroke-linejoin="round"/>
<path d="M51.75 42.6626C54.7125 44.1626 56.75 47.3876 56.75 51.1251C56.75 51.3376 56.7375 51.5376 56.7125 51.7501" stroke="white" stroke-width="1.5" stroke-miterlimit="10" stroke-linecap="round" stroke-linejoin="round"/>
<path d="M39.2875 51.7501C39.2625 51.5376 39.25 51.3376 39.25 51.1251C39.25 47.3876 41.2875 44.1626 44.25 42.6626" stroke="white" stroke-width="1.5" stroke-miterlimit="10" stroke-linecap="round" stroke-linejoin="round"/>
<path d="M36.75 44.25C38.1307 44.25 39.25 43.1307 39.25 41.75C39.25 40.3693 38.1307 39.25 36.75 39.25C35.3693 39.25 34.25 40.3693 34.25 41.75C34.25 43.1307 35.3693 44.25 36.75 44.25Z" stroke="white" stroke-width="1.5" stroke-miterlimit="10" stroke-linecap="round" stroke-linejoin="round"/>
<path d="M59.25 44.25C60.6307 44.25 61.75 43.1307 61.75 41.75C61.75 40.3693 60.6307 39.25 59.25 39.25C57.8693 39.25 56.75 40.3693 56.75 41.75C56.75 43.1307 57.8693 44.25 59.25 44.25Z" stroke="white" stroke-width="1.5" stroke-miterlimit="10" stroke-linecap="round" stroke-linejoin="round"/>
<path d="M56.75 41.75H51.75" stroke="white" stroke-width="1.5" stroke-miterlimit="10" stroke-linecap="round" stroke-linejoin="round"/>
<path d="M44.25 41.75H39.25" stroke="white" stroke-width="1.5" stroke-miterlimit="10" stroke-linecap="round" stroke-linejoin="round"/>
<path d="M42.375 53.625V56.125C42.375 56.8875 41.9125 57.55 41.2625 57.825C41.025 57.9375 40.775 58 40.5 58H38C36.9625 58 36.125 57.1625 36.125 56.125V53.625C36.125 52.5875 36.9625 51.75 38 51.75H40.5C41.5375 51.75 42.375 52.5875 42.375 53.625Z" stroke="white" stroke-width="1.5" stroke-miterlimit="10" stroke-linecap="round" stroke-linejoin="round"/>
<path d="M59.875 53.625V56.125C59.875 57.1625 59.0375 58 58 58H55.5C55.225 58 54.975 57.9375 54.7375 57.825C54.0875 57.55 53.625 56.8875 53.625 56.125V53.625C53.625 52.5875 54.4625 51.75 55.5 51.75H58C59.0375 51.75 59.875 52.5875 59.875 53.625Z" stroke="white" stroke-width="1.5" stroke-miterlimit="10" stroke-linecap="round" stroke-linejoin="round"/>
<path d="M51.75 39.875V43.625C51.75 44.65 50.9 45.5 49.875 45.5H46.125C45.1 45.5 44.25 44.65 44.25 43.625V39.875C44.25 38.85 45.1 38 46.125 38H49.875C50.9 38 51.75 38.85 51.75 39.875Z" stroke="white" stroke-width="1.5" stroke-miterlimit="10" stroke-linecap="round" stroke-linejoin="round"/>
<path d="M51.75 42.6626C54.7125 44.1626 56.75 47.3876 56.75 51.1251C56.75 51.3376 56.7375 51.5376 56.7125 51.7501" stroke="white" stroke-width="1.5" stroke-miterlimit="10" stroke-linecap="round" stroke-linejoin="round"/>
<path d="M39.2875 51.7501C39.2625 51.5376 39.25 51.3376 39.25 51.1251C39.25 47.3876 41.2875 44.1626 44.25 42.6626" stroke="white" stroke-width="1.5" stroke-miterlimit="10" stroke-linecap="round" stroke-linejoin="round"/>
</svg>
