<svg width="95" height="95" viewBox="0 0 95 95" fill="none" xmlns="http://www.w3.org/2000/svg">
<circle cx="47.5" cy="47.5" r="47.5" fill="black"/>
<circle cx="47.5" cy="47.5" r="47.5" fill="black"/>
<path d="M48 48C51.4518 48 54.25 45.2018 54.25 41.75C54.25 38.2982 51.4518 35.5 48 35.5C44.5482 35.5 41.75 38.2982 41.75 41.75C41.75 45.2018 44.5482 48 48 48Z" stroke="white" stroke-width="1.5" stroke-linecap="round" stroke-linejoin="round"/>
<path d="M37.2625 60.5C37.2625 55.6625 42.075 51.75 48 51.75" stroke="white" stroke-width="1.5" stroke-linecap="round" stroke-linejoin="round"/>
<path d="M55.75 59.75C57.9592 59.75 59.75 57.9592 59.75 55.75C59.75 53.5409 57.9592 51.75 55.75 51.75C53.5409 51.75 51.75 53.5409 51.75 55.75C51.75 57.9592 53.5409 59.75 55.75 59.75Z" stroke="white" stroke-width="1.5" stroke-linecap="round" stroke-linejoin="round"/>
<path d="M60.5 60.5L59.25 59.25" stroke="white" stroke-width="1.5" stroke-linecap="round" stroke-linejoin="round"/>
<path d="M48 48C51.4518 48 54.25 45.2018 54.25 41.75C54.25 38.2982 51.4518 35.5 48 35.5C44.5482 35.5 41.75 38.2982 41.75 41.75C41.75 45.2018 44.5482 48 48 48Z" stroke="white" stroke-width="1.5" stroke-linecap="round" stroke-linejoin="round"/>
<path d="M37.2625 60.5C37.2625 55.6625 42.075 51.75 48 51.75" stroke="white" stroke-width="1.5" stroke-linecap="round" stroke-linejoin="round"/>
<path d="M55.75 59.75C57.9592 59.75 59.75 57.9592 59.75 55.75C59.75 53.5409 57.9592 51.75 55.75 51.75C53.5409 51.75 51.75 53.5409 51.75 55.75C51.75 57.9592 53.5409 59.75 55.75 59.75Z" stroke="white" stroke-width="1.5" stroke-linecap="round" stroke-linejoin="round"/>
<path d="M60.5 60.5L59.25 59.25" stroke="white" stroke-width="1.5" stroke-linecap="round" stroke-linejoin="round"/>
</svg>
