<svg width="95" height="95" viewBox="0 0 95 95" fill="none" xmlns="http://www.w3.org/2000/svg">
<circle cx="47.5" cy="47.5" r="47.5" fill="black"/>
<circle cx="47.5" cy="47.5" r="47.5" fill="black"/>
<path d="M45.5 38.625V55.5C45.5 56.85 44.95 58.0875 44.075 58.9875L44.025 59.0375C43.9125 59.15 43.7875 59.2625 43.675 59.35C43.3 59.675 42.875 59.925 42.4375 60.1C42.3 60.1625 42.1625 60.2125 42.025 60.2625C41.5375 60.425 41.0125 60.5 40.5 60.5C40.1625 60.5 39.825 60.4625 39.5 60.4C39.3375 60.3625 39.175 60.325 39.0125 60.275C38.8125 60.2125 38.625 60.15 38.4375 60.0625C38.4375 60.05 38.4375 60.05 38.425 60.0625C38.075 59.8875 37.7375 59.6875 37.425 59.45L37.4125 59.4375C37.25 59.3125 37.1 59.1875 36.9625 59.0375C36.825 58.8875 36.6875 58.7375 36.55 58.575C36.3125 58.2625 36.1125 57.925 35.9375 57.575C35.95 57.5625 35.95 57.5625 35.9375 57.5625C35.9375 57.5625 35.9375 57.55 35.925 57.5375C35.85 57.3625 35.7875 57.175 35.725 56.9875C35.675 56.825 35.6375 56.6625 35.6 56.5C35.5375 56.175 35.5 55.8375 35.5 55.5V38.625C35.5 36.75 36.75 35.5 38.625 35.5H42.375C44.25 35.5 45.5 36.75 45.5 38.625Z" stroke="white" stroke-width="1.5" stroke-linecap="round" stroke-linejoin="round"/>
<path d="M60.5 53.625V57.375C60.5 59.25 59.25 60.5 57.375 60.5H40.5C41.0125 60.5 41.5375 60.425 42.025 60.2625C42.1625 60.2125 42.3 60.1625 42.4375 60.1C42.875 59.925 43.3 59.675 43.675 59.35C43.7875 59.2625 43.9125 59.15 44.025 59.0375L44.075 58.9875L52.575 50.5H57.375C59.25 50.5 60.5 51.75 60.5 53.625Z" stroke="white" stroke-width="1.5" stroke-linecap="round" stroke-linejoin="round"/>
<path d="M39.0125 60.2751C38.2625 60.0501 37.55 59.6375 36.9625 59.0375C36.3625 58.45 35.95 57.7375 35.725 56.9875C36.2125 58.55 37.45 59.7876 39.0125 60.2751Z" stroke="white" stroke-width="1.5" stroke-linecap="round" stroke-linejoin="round"/>
<path d="M55.9625 47.1124L52.575 50.4999L44.075 58.9874C44.95 58.0874 45.5 56.8499 45.5 55.4999V43.4249L48.8875 40.0375C50.2125 38.7125 51.9875 38.7125 53.3125 40.0375L55.9625 42.6874C57.2875 44.0124 57.2875 45.7874 55.9625 47.1124Z" stroke="white" stroke-width="1.5" stroke-linecap="round" stroke-linejoin="round"/>
<path d="M40.5 56.75C41.1904 56.75 41.75 56.1904 41.75 55.5C41.75 54.8096 41.1904 54.25 40.5 54.25C39.8096 54.25 39.25 54.8096 39.25 55.5C39.25 56.1904 39.8096 56.75 40.5 56.75Z" stroke="white" stroke-width="1.5" stroke-linecap="round" stroke-linejoin="round"/>
<path d="M45.5 38.625V55.5C45.5 56.85 44.95 58.0875 44.075 58.9875L44.025 59.0375C43.9125 59.15 43.7875 59.2625 43.675 59.35C43.3 59.675 42.875 59.925 42.4375 60.1C42.3 60.1625 42.1625 60.2125 42.025 60.2625C41.5375 60.425 41.0125 60.5 40.5 60.5C40.1625 60.5 39.825 60.4625 39.5 60.4C39.3375 60.3625 39.175 60.325 39.0125 60.275C38.8125 60.2125 38.625 60.15 38.4375 60.0625C38.4375 60.05 38.4375 60.05 38.425 60.0625C38.075 59.8875 37.7375 59.6875 37.425 59.45L37.4125 59.4375C37.25 59.3125 37.1 59.1875 36.9625 59.0375C36.825 58.8875 36.6875 58.7375 36.55 58.575C36.3125 58.2625 36.1125 57.925 35.9375 57.575C35.95 57.5625 35.95 57.5625 35.9375 57.5625C35.9375 57.5625 35.9375 57.55 35.925 57.5375C35.85 57.3625 35.7875 57.175 35.725 56.9875C35.675 56.825 35.6375 56.6625 35.6 56.5C35.5375 56.175 35.5 55.8375 35.5 55.5V38.625C35.5 36.75 36.75 35.5 38.625 35.5H42.375C44.25 35.5 45.5 36.75 45.5 38.625Z" stroke="white" stroke-width="1.5" stroke-linecap="round" stroke-linejoin="round"/>
<path d="M60.5 53.625V57.375C60.5 59.25 59.25 60.5 57.375 60.5H40.5C41.0125 60.5 41.5375 60.425 42.025 60.2625C42.1625 60.2125 42.3 60.1625 42.4375 60.1C42.875 59.925 43.3 59.675 43.675 59.35C43.7875 59.2625 43.9125 59.15 44.025 59.0375L44.075 58.9875L52.575 50.5H57.375C59.25 50.5 60.5 51.75 60.5 53.625Z" stroke="white" stroke-width="1.5" stroke-linecap="round" stroke-linejoin="round"/>
<path d="M39.0125 60.2751C38.2625 60.0501 37.55 59.6375 36.9625 59.0375C36.3625 58.45 35.95 57.7375 35.725 56.9875C36.2125 58.55 37.45 59.7876 39.0125 60.2751Z" stroke="white" stroke-width="1.5" stroke-linecap="round" stroke-linejoin="round"/>
<path d="M55.9625 47.1124L52.575 50.4999L44.075 58.9874C44.95 58.0874 45.5 56.8499 45.5 55.4999V43.4249L48.8875 40.0375C50.2125 38.7125 51.9875 38.7125 53.3125 40.0375L55.9625 42.6874C57.2875 44.0124 57.2875 45.7874 55.9625 47.1124Z" stroke="white" stroke-width="1.5" stroke-linecap="round" stroke-linejoin="round"/>
<path d="M40.5 56.75C41.1904 56.75 41.75 56.1904 41.75 55.5C41.75 54.8096 41.1904 54.25 40.5 54.25C39.8096 54.25 39.25 54.8096 39.25 55.5C39.25 56.1904 39.8096 56.75 40.5 56.75Z" stroke="white" stroke-width="1.5" stroke-linecap="round" stroke-linejoin="round"/>
</svg>
