<svg width="95" height="95" viewBox="0 0 95 95" fill="none" xmlns="http://www.w3.org/2000/svg">
<circle cx="47.5" cy="47.5" r="47.5" fill="black"/>
<circle cx="47.5" cy="47.5" r="47.5" fill="black"/>
<path d="M59.8374 56.75V39.25C59.8374 36.75 58.5874 35.5 56.0874 35.5H51.0874C48.5874 35.5 47.3374 36.75 47.3374 39.25V56.75C47.3374 59.25 48.5874 60.5 51.0874 60.5H56.0874C58.5874 60.5 59.8374 59.25 59.8374 56.75Z" stroke="white" stroke-width="1.5" stroke-linecap="round"/>
<path d="M47.3374 40.5H53.5874" stroke="white" stroke-width="1.5" stroke-linecap="round"/>
<path d="M47.3374 55.5H52.3374" stroke="white" stroke-width="1.5" stroke-linecap="round"/>
<path d="M47.3374 50.4375L53.5874 50.5" stroke="white" stroke-width="1.5" stroke-linecap="round"/>
<path d="M47.3374 45.5H51.0874" stroke="white" stroke-width="1.5" stroke-linecap="round"/>
<path d="M39.8626 35.5C37.8251 35.5 36.1626 37.1625 36.1626 39.1875V55.3875C36.1626 55.95 36.4001 56.8 36.6876 57.2875L37.7126 58.9875C38.8876 60.95 40.8251 60.95 42.0001 58.9875L43.0251 57.2875C43.3126 56.8 43.5501 55.95 43.5501 55.3875V39.1875C43.5501 37.1625 41.8876 35.5 39.8626 35.5Z" stroke="white" stroke-width="1.5" stroke-linecap="round"/>
<path d="M43.5501 41.75H36.1626" stroke="white" stroke-width="1.5" stroke-linecap="round"/>
<path d="M59.8374 56.75V39.25C59.8374 36.75 58.5874 35.5 56.0874 35.5H51.0874C48.5874 35.5 47.3374 36.75 47.3374 39.25V56.75C47.3374 59.25 48.5874 60.5 51.0874 60.5H56.0874C58.5874 60.5 59.8374 59.25 59.8374 56.75Z" stroke="white" stroke-width="1.5" stroke-linecap="round"/>
<path d="M47.3374 40.5H53.5874" stroke="white" stroke-width="1.5" stroke-linecap="round"/>
<path d="M47.3374 55.5H52.3374" stroke="white" stroke-width="1.5" stroke-linecap="round"/>
<path d="M47.3374 50.4375L53.5874 50.5" stroke="white" stroke-width="1.5" stroke-linecap="round"/>
<path d="M47.3374 45.5H51.0874" stroke="white" stroke-width="1.5" stroke-linecap="round"/>
<path d="M39.8626 35.5C37.8251 35.5 36.1626 37.1625 36.1626 39.1875V55.3875C36.1626 55.95 36.4001 56.8 36.6876 57.2875L37.7126 58.9875C38.8876 60.95 40.8251 60.95 42.0001 58.9875L43.0251 57.2875C43.3126 56.8 43.5501 55.95 43.5501 55.3875V39.1875C43.5501 37.1625 41.8876 35.5 39.8626 35.5Z" stroke="white" stroke-width="1.5" stroke-linecap="round"/>
<path d="M43.5501 41.75H36.1626" stroke="white" stroke-width="1.5" stroke-linecap="round"/>
</svg>
